<?xml version='1.0' encoding='UTF-8' standalone='no'?>
<svg xmlns="http://www.w3.org/2000/svg" version="1.1" width="7.6620002cm" height="4cm" y="0px" id="Layer_1"  gorn="0" viewBox="0 0 217.1906 113.38971" x="0px">
    <desc >
        <referenceFile >svg.breadboard.batterypack_2x18650_leg.svg</referenceFile>
    </desc>
    <metadata id="metadata124" >
        <rdf:RDF xmlns:rdf="http://www.w3.org/1999/02/22-rdf-syntax-ns#">
            <cc:Work xmlns:rdf="http://www.w3.org/1999/02/22-rdf-syntax-ns#" xmlns:cc="http://creativecommons.org/ns#" rdf:about="">
                <dc:format xmlns:dc="http://purl.org/dc/elements/1.1/">image/svg+xml</dc:format>
                <dc:type xmlns:rdf="http://www.w3.org/1999/02/22-rdf-syntax-ns#" rdf:resource="http://purl.org/dc/dcmitype/StillImage" xmlns:dc="http://purl.org/dc/elements/1.1/"/>
                <dc:title xmlns:dc="http://purl.org/dc/elements/1.1/"/>
            </cc:Work>
        </rdf:RDF>
    </metadata>
    <defs id="defs122" />
    <rect width="1.3083831" style="fill:#8c8c8c" height="3.8884034" y="58.267097"  x="210.86528"/>
    <rect width="1.3083831" style="fill:#8c8c8c" height="3.8884034" y="42.121765"  x="210.86528"/>
    <line style="stroke-linecap:round" x1="216.7626" y2="60.795258" id="connector0leg"  gorn="0.5" stroke-width="3" y1="60.795258" x2="222.4286" fill="none" stroke="#000000"/>
    <line style="stroke-linecap:round" x1="216.7626" y2="43.904144" id="connector1leg"  gorn="0.6" stroke-width="3" y1="43.904144" x2="222.4286" fill="none" stroke="#ff0000"/>
    <path style="fill:#1a1a1a" id="path8" d="m 210.81944,110.4708 c 0,1.72257 -1.56875,2.91889 -2.94647,2.91889 l -205.3584367,0 c -1.95079968,0 -2.94647848,-0.97987 -2.94647848,-2.91889 l 0,-107.5532105 c 0,-1.539806 1.2141797,-2.9175970176401 2.94647848,-2.9175970176401 l 205.3584367,0 c 1.59621,0 2.94647,1.1613350176401 2.94647,2.9188940176401 l 0,107.5519135 z"  gorn="0.7"/>
    <path id="path10" d="m 2.6375214,80.518443 0,-68.100189 c 0,-1.004505 0.5560618,-1.836623 1.2364217,-1.836623 0.6803589,0 1.2324959,0.832118 1.2324959,1.836623 l 1.3083836,33.216033 c 0,1.009688 0.5599878,1.836619 1.2364218,1.836619 0.676434,0 1.2364218,-0.826931 1.2364218,-1.836619 l 1.3083828,-25.73345 c 0,-1.009689 0.55737,-1.837918 1.232496,-1.837918 0.681669,0 1.235114,0.828229 1.235114,1.837918 l 0,20.219695"  gorn="0.8" stroke-width="1.30224442" fill="none" stroke="#c9c9c9"/>
    <path id="path12" d="m 196.86423,76.828343 0,20.2197 c 0,1.00969 0.55736,1.83791 1.2325,1.83791 0.68166,0 1.23641,-0.82822 1.23641,-1.83791 l 1.30838,-25.73345 c 0,-1.00969 0.55477,-1.83662 1.23512,-1.83662 0.67905,0 1.23119,0.82693 1.23119,1.83662 l 1.30838,33.216027 c 0,1.00839 0.55998,1.83662 1.23642,1.83662 0.67643,0 1.23643,-0.82823 1.23643,-1.83662 l 0,-40.760828 c 0,-1.0058 0.83605,-1.836618 1.85528,-1.836618 l 2.09865,0"  gorn="0.9" stroke-width="1.30224442" fill="none" stroke="#c9c9c9"/>
    <path id="path14" d="m 206.89953,17.640379 0,24.590255 c 0,1.008394 0.83604,1.835331 1.85527,1.835331 l 2.09866,0"  gorn="0.10" stroke-width="1.30224442" fill="none" stroke="#c9c9c9"/>
    <rect width="4.9574637" style="fill:#c9c9c9" height="20.456877" y="73.243233" id="rect16"  gorn="0.11" x="2.0082016"/>
    <rect width="4.2247686" style="fill:#c9c9c9" height="20.460766" y="17.750549" id="rect18"  gorn="0.12" x="202.82266"/>
    <path style="fill:#353535" id="path22" d="m 199.10303,49.253107 c 0,3.034251 -2.50293,5.511165 -5.56324,5.511165 l -174.684858,0 c -3.060309,0 -5.563246,-2.476914 -5.563246,-5.511165 l 0,-40.4160688 c 0,-3.0303627 2.502937,-5.5111643 5.563246,-5.5111643 l 174.686168,0 c 3.06031,0 5.56324,2.4808016 5.56324,5.5111643 l -0.001,40.4160688 0,0 z"  gorn="0.13"/>
    <path style="fill:#ce925d" id="path24" d="m 155.21532,3.4114187 38.12906,0 c 2.41606,0 4.39208,2.4769133 4.39208,5.5111644 l 0,40.4251419 c 0,3.030363 -1.97602,5.511164 -4.39208,5.511164 l -38.12906,0 0,-51.4474703 z"  gorn="0.14"/>
    <path style="opacity:0.35" enable-background="new    " id="path26" d="m 19.276231,52.658053 c -2.302754,0 -5.241383,-2.1127 -5.241383,-4.616832 l 0,-11.568001 c 0,2.506724 2.938629,6.435308 5.241383,6.435308 l 173.418339,0 c 2.30407,0 5.24139,-3.928584 5.24139,-6.435308 l 0,11.569298 c 0,2.506724 -2.93732,4.616831 -5.24139,4.616831 l -173.418339,0 z"  gorn="0.15"/>
    <path style="fill:#b2b2b2" id="path28" d="m 198.94603,28.704189 c 0,11.521341 -0.44223,20.858694 -0.99045,20.858694 -0.54821,0 -0.54821,-41.7160916 0,-41.7160916 0.54822,0 0.99045,9.3386496 0.99045,20.8573976"  gorn="0.16"/>
    <path style="fill:#7c7c7c" id="path30" d="m 198.57576,35.814784 c -0.36243,0 -0.36243,-15.413633 0,-15.413633 l -0.0105,0.0013 c 0,0.950067 0.77718,1.719971 1.73753,1.719971 l 0.78503,0 c 0.95774,0 1.73623,0.769904 1.73623,1.721267 l 0,8.523381 c 0,0.946178 -0.77849,1.721266 -1.73623,1.721266 l -0.78503,0 c -0.96035,0 -1.73753,0.769904 -1.73753,1.718675 l 0.0105,0.0078 0,0 z"  gorn="0.17"/>
    <path style="opacity:0.35;fill:#ffffff" enable-background="new    " id="path54" d="m 193.70726,18.52046 c 0,1.836623 -2.01491,3.325881 -4.50084,3.325881 l -166.591195,0 c -2.482003,0 -4.498222,-1.359645 -4.498222,-3.197564 l 0,-10.0268972 c 0,-1.8379188 2.014911,-3.4580871 4.498222,-3.4580871 l 166.589895,0 c 2.48592,0 4.50083,1.4905548 4.50083,3.3284737 l 0,10.0281936 z"  gorn="0.18"/>
    <path style="fill:#353535" id="path58" d="m 10.688004,104.99597 c 0,3.03036 2.501628,5.51116 5.563245,5.51116 l 174.682241,0 c 3.06031,0 5.56325,-2.4808 5.56325,-5.51116 l 0,-40.419959 c 0,-3.030363 -2.50294,-5.511165 -5.56325,-5.511165 l -174.682241,0 c -3.061617,0 -5.563245,2.480802 -5.563245,5.511165 l 0,40.419959 z"  gorn="0.19"/>
    <path style="fill:#ce925d" id="path60" d="m 53.209145,59.068735 -38.129064,0 c -2.417089,0 -4.392077,2.480801 -4.392077,5.511164 l 0,40.419961 c 0,3.03036 1.974988,5.51116 4.392077,5.51116 l 38.129064,0 0,-51.442285 z"  gorn="0.20"/>
    <path style="opacity:0.35" enable-background="new    " id="path62" d="m 190.5135,108.40221 c 2.30275,0 5.24138,-2.11659 5.24138,-4.61813 l 0,-11.569295 c 0,2.506724 -2.93863,6.435308 -5.24138,6.435308 l -173.419652,0 c -2.302755,0 -5.241383,-3.928584 -5.241383,-6.435308 l 0,11.569295 c 0,2.50673 2.938628,4.61813 5.241383,4.61813 l 173.419652,0 z"  gorn="0.21"/>
    <path style="fill:#b2b2b2" id="path64" d="m 10.843701,84.44705 c 0,11.521341 0.444851,20.85869 0.993063,20.85869 0.548213,0 0.548213,-41.716088 0,-41.716088 -0.548212,0 -0.993063,9.33865 -0.993063,20.857398"  gorn="0.22"/>
    <path style="fill:#7c7c7c" id="path66" d="m 11.213974,91.558941 c 0.36373,0 0.36373,-15.413633 0,-15.413633 l 0.01047,0.0013 c 0,0.950067 -0.77718,1.719971 -1.733608,1.719971 l -0.7889551,0 c -0.9538113,0 -1.7362245,0.773792 -1.7362245,1.721266 l 0,8.524678 c 0,0.947474 0.7824132,1.721266 1.7362245,1.721266 l 0.7889551,0 c 0.956428,0 1.733608,0.769904 1.733608,1.721267 l -0.01047,0.0039 0,0 z"  gorn="0.23"/>
    <path style="opacity:0.35;fill:#ffffff" enable-background="new    " id="path90" d="m 16.083776,74.262024 c 0,1.840512 2.01491,3.325882 4.498221,3.325882 l 166.591203,0 c 2.482,0 4.49822,-1.359645 4.49822,-3.197564 l 0,-10.026898 c 0,-1.837918 -2.01622,-3.458087 -4.49822,-3.458087 l -166.588586,0 c -2.482003,0 -4.498221,1.490555 -4.498221,3.328474 l -0.0026,10.028193 0,0 z"  gorn="0.24"/>
    <g  transform="matrix(1.3083832,0,0,1.2961346,-0.43194518,-7.5176401e-6)">
        <g >
            <g >
                <g >
                    <g id="g92"  gorn="0.25.0.0.0.0">
                        <path style="fill:#1a1a1a" id="path94" d="m 8.053,0.143 1.96,1.522 c 0,0 1.398,1.583 2.616,3.271 0.726,1.006 1.334,4.549 2.23,5.447 0.899,0.896 2.182,1.09 3.271,1.09 0.303,0 25.249,0 25.552,0 1.09,0 2.37,-0.19 3.27,-1.09 C 47.85,9.485 48.461,5.942 49.184,4.936 50.401,3.248 51.8,1.665 51.8,1.665 l 1.96,-1.522 -45.707,0 z"  gorn="0.25.0.0.0.0.0"/>
                        <path style="opacity:0.2;fill:#ffffff" enable-background="new    " id="path96" d="m 10.883,1.292 0.511,0.19 c 0,0 0,0.707 1.136,1.459 0.681,0.449 1.246,0.645 2.085,1.047 0.84,0.4 2.035,0.486 3.056,0.486 0.282,0 26.191,0 26.478,0 1.021,0 2.213,-0.086 3.052,-0.486 0.841,-0.402 1.408,-0.598 2.085,-1.047 1.14,-0.752 1.139,-1.459 1.139,-1.459 L 50.926,1.294 10.883,1.292 Z"  gorn="0.25.0.0.0.0.1"/>
                    </g>
                </g>
            </g>
        </g>
    </g>
    <g  transform="matrix(1.3083832,0,0,1.2961346,-0.43194518,-7.5176401e-6)">
        <g >
            <g >
                <g >
                    <g id="g98"  gorn="0.26.0.0.0.0">
                        <path style="fill:#1a1a1a" id="path100" d="m 107.719,0.143 1.96,1.522 c 0,0 1.398,1.583 2.616,3.271 0.726,1.006 1.335,4.549 2.23,5.447 0.898,0.896 2.182,1.09 3.271,1.09 0.304,0 25.249,0 25.552,0 1.09,0 2.369,-0.19 3.271,-1.09 0.897,-0.898 1.508,-4.441 2.231,-5.447 1.217,-1.688 2.615,-3.271 2.615,-3.271 l 1.961,-1.522 -45.707,0 z"  gorn="0.26.0.0.0.0.0"/>
                        <path style="opacity:0.2;fill:#ffffff" enable-background="new    " id="path102" d="m 110.549,1.292 0.511,0.19 c 0,0 0,0.707 1.136,1.459 0.681,0.449 1.245,0.645 2.085,1.047 0.843,0.4 2.035,0.486 3.056,0.486 0.282,0 26.192,0 26.479,0 1.021,0 2.213,-0.086 3.053,-0.486 0.841,-0.402 1.407,-0.598 2.087,-1.047 1.138,-0.752 1.137,-1.459 1.137,-1.459 l 0.501,-0.188 -40.045,-0.002 z"  gorn="0.26.0.0.0.0.1"/>
                    </g>
                </g>
            </g>
        </g>
    </g>
    <g  transform="matrix(1.3083832,0,0,1.2961346,-0.43194518,-7.5176401e-6)">
        <g >
            <g >
                <g >
                    <g id="g104"  gorn="0.27.0.0.0.0">
                        <path style="fill:#1a1a1a" id="path106" d="m 8.053,87.143 1.96,-1.525 c 0,0 1.398,-1.582 2.616,-3.269 0.726,-1.006 1.334,-4.549 2.23,-5.448 0.899,-0.898 2.182,-1.09 3.271,-1.09 0.303,0 25.249,0 25.552,0 1.09,0 2.37,0.188 3.27,1.09 0.898,0.899 1.509,4.442 2.232,5.448 1.217,1.687 2.616,3.269 2.616,3.269 l 1.96,1.525 -45.707,0 z"  gorn="0.27.0.0.0.0.0"/>
                        <path id="path108" d="m 10.883,85.994 0.511,-0.188 c 0,0 0,-0.708 1.136,-1.46 0.681,-0.449 1.246,-0.646 2.085,-1.045 0.84,-0.401 2.035,-0.486 3.056,-0.486 0.282,0 26.191,0 26.478,0 1.021,0 2.213,0.085 3.052,0.486 0.841,0.398 1.408,0.596 2.085,1.045 1.14,0.752 1.139,1.46 1.139,1.46 l 0.501,0.185 -40.043,0.003 z"  gorn="0.27.0.0.0.0.1"/>
                    </g>
                </g>
            </g>
        </g>
    </g>
    <g  transform="matrix(1.3083832,0,0,1.2961346,-0.43194518,-7.5176401e-6)">
        <g >
            <g >
                <g >
                    <g id="g110"  gorn="0.28.0.0.0.0">
                        <path style="fill:#1a1a1a" id="path112" d="m 107.719,87.143 1.96,-1.525 c 0,0 1.398,-1.582 2.616,-3.269 0.726,-1.006 1.335,-4.549 2.23,-5.448 0.898,-0.898 2.182,-1.09 3.271,-1.09 0.304,0 25.249,0 25.552,0 1.09,0 2.369,0.188 3.271,1.09 0.898,0.9 1.508,4.442 2.231,5.448 1.217,1.687 2.615,3.269 2.615,3.269 l 1.961,1.525 -45.707,0 z"  gorn="0.28.0.0.0.0.0"/>
                        <path id="path114" d="m 110.549,85.994 0.511,-0.188 c 0,0 0,-0.708 1.136,-1.46 0.681,-0.449 1.245,-0.646 2.085,-1.045 0.843,-0.401 2.035,-0.486 3.056,-0.486 0.282,0 26.192,0 26.479,0 1.021,0 2.213,0.085 3.053,0.486 0.841,0.398 1.407,0.596 2.087,1.045 1.138,0.752 1.137,1.46 1.137,1.46 l 0.501,0.185 -40.045,0.003 z"  gorn="0.28.0.0.0.0.1"/>
                    </g>
                </g>
            </g>
        </g>
    </g>
    <path id="connector0pin" d="m 211.09655,60.795261 5.666,0"  gorn="0.29" stroke-width="3" fill="none" stroke="#000000"/>
    <path id="connector1pin" d="m 211.09655,43.904151 5.666,0"  gorn="0.30" stroke-width="3" fill="none" stroke="#ff0000"/>
    <g style="font-style:normal;font-weight:normal;line-height:125%;font-family:Droid Sans;letter-spacing:0px;word-spacing:0px;stroke-linecap:butt;stroke-linejoin:miter;" font-size="25.6009" stroke-opacity="1" id="text4374" fill-opacity="1"  gorn="0.31" stroke-width="0.8" xmlns:xml="http://www.w3.org/XML/1998/namespace" fill="#000000" xml:space="preserve" stroke="none">
        <text style="font-style:normal;font-variant:normal;font-weight:bold;font-stretch:normal;font-size:16.00054741px;font-family:Droid Droid Sans;-inkscape-font-specification:'Droid Droid Sans Bold';fill:#f9f9f9" y="30.097544" id="tspan4376"  gorn="0.31.0" x="33.691303">18650 battery</text>
    </g>
    <g  transform="scale(-1,-1)">
        <g >
            <g >
                <g >
                    <g style="font-style:normal;font-weight:normal;line-height:125%;font-family:Droid Sans;letter-spacing:0px;word-spacing:0px;stroke-linecap:butt;stroke-linejoin:miter;" font-size="25.6009" stroke-opacity="1" id="text4378" fill-opacity="1"  gorn="0.32.0.0.0.0" stroke-width="0.8" xmlns:xml="http://www.w3.org/XML/1998/namespace" fill="#000000" xml:space="preserve" stroke="none">
                        <text style="font-style:normal;font-variant:normal;font-weight:bold;font-stretch:normal;font-size:16.00054741px;font-family:Droid Droid Sans;-inkscape-font-specification:'Droid Droid Sans Bold';fill:#f9f9f9" y="-74.586571" id="tspan4380"  gorn="0.32.0.0.0.0.0" x="-175.02107">18650 battery</text>
                    </g>
                </g>
            </g>
        </g>
    </g>
</svg>
