<?xml version='1.0' encoding='UTF-8' standalone='no'?>
<svg xmlns="http://www.w3.org/2000/svg" version="1.1" width="8.2570601cm" height="4.6690083cm" y="0px" id="Layer_1"  gorn="0" viewBox="0 0 234.05844 132.35437" x="0px">
    <desc >
        <referenceFile >svg.icon.batterypack_2x18650_leg.svg</referenceFile>
    </desc>
    <metadata id="metadata124" >
        <rdf:RDF xmlns:rdf="http://www.w3.org/1999/02/22-rdf-syntax-ns#">
            <cc:Work xmlns:rdf="http://www.w3.org/1999/02/22-rdf-syntax-ns#" xmlns:cc="http://creativecommons.org/ns#" rdf:about="">
                <dc:format xmlns:dc="http://purl.org/dc/elements/1.1/">image/svg+xml</dc:format>
                <dc:type xmlns:rdf="http://www.w3.org/1999/02/22-rdf-syntax-ns#" rdf:resource="http://purl.org/dc/dcmitype/StillImage" xmlns:dc="http://purl.org/dc/elements/1.1/"/>
                <dc:title xmlns:dc="http://purl.org/dc/elements/1.1/"/>
            </cc:Work>
        </rdf:RDF>
    </metadata>
    <defs id="defs122" />
    <rect width="1.3083831" style="fill:#8c8c8c" height="3.8884034" y="58.267105" id="connector0pin"  gorn="0.3" x="211.29353"/>
    <rect width="1.3083831" style="fill:#8c8c8c" height="3.8884034" y="42.121773" id="connector1pin"  gorn="0.4" x="211.29353"/>
    <path style="fill:#1a1a1a" id="path8" d="m 211.24769,110.47081 c 0,1.72257 -1.56875,2.91889 -2.94647,2.91889 l -205.3584404,0 c -1.95079966,0 -2.94647846,-0.97987 -2.94647846,-2.91889 l 0,-107.553213 C -0.00369886,1.377791 1.2104808,0 2.9427796,0 L 208.30122,0 c 1.59621,0 2.94647,1.161335 2.94647,2.918894 l 0,107.551916 z"  gorn="0.5"/>
    <path id="path10" d="m 3.0657677,80.518451 0,-68.100189 c 0,-1.004505 0.5560618,-1.836623 1.2364217,-1.836623 0.6803589,0 1.2324959,0.832118 1.2324959,1.836623 l 1.3083836,33.216033 c 0,1.009688 0.5599878,1.836619 1.2364218,1.836619 0.676434,0 1.2364218,-0.826931 1.2364218,-1.836619 l 1.3083825,-25.73345 c 0,-1.009689 0.55737,-1.837918 1.232496,-1.837918 0.681669,0 1.235114,0.828229 1.235114,1.837918 l 0,20.219695"  gorn="0.6" stroke-width="1.30224442" fill="none" stroke="#c9c9c9"/>
    <path id="path12" d="m 197.29248,76.828351 0,20.2197 c 0,1.00969 0.55736,1.83791 1.2325,1.83791 0.68166,0 1.23641,-0.82822 1.23641,-1.83791 l 1.30838,-25.73345 c 0,-1.00969 0.55477,-1.83662 1.23512,-1.83662 0.67905,0 1.23119,0.82693 1.23119,1.83662 l 1.30838,33.216029 c 0,1.00839 0.55998,1.83662 1.23642,1.83662 0.67643,0 1.23643,-0.82823 1.23643,-1.83662 l 0,-40.76083 c 0,-1.0058 0.83605,-1.836618 1.85528,-1.836618 l 2.09865,0"  gorn="0.7" stroke-width="1.30224442" fill="none" stroke="#c9c9c9"/>
    <path id="path14" d="m 207.32778,17.640387 0,24.590255 c 0,1.008394 0.83604,1.835331 1.85527,1.835331 l 2.09866,0"  gorn="0.8" stroke-width="1.30224442" fill="none" stroke="#c9c9c9"/>
    <rect width="4.9574637" style="fill:#c9c9c9" height="20.456877" y="73.24324" id="rect16"  gorn="0.9" x="2.4364479"/>
    <rect width="4.2247686" style="fill:#c9c9c9" height="20.460766" y="17.750557" id="rect18"  gorn="0.10" x="203.25092"/>
    <path style="fill:#353535" id="path22" d="m 199.53128,49.253115 c 0,3.034251 -2.50293,5.511165 -5.56324,5.511165 l -174.684862,0 c -3.060309,0 -5.563246,-2.476914 -5.563246,-5.511165 l 0,-40.4160693 c 0,-3.0303627 2.502937,-5.5111643 5.563246,-5.5111643 l 174.686172,0 c 3.06031,0 5.56324,2.4808016 5.56324,5.5111643 l -0.001,40.4160693 0,0 z"  gorn="0.11"/>
    <path style="fill:#ce925d" id="path24" d="m 155.64357,3.4114262 38.12906,0 c 2.41606,0 4.39208,2.4769133 4.39208,5.5111644 l 0,40.4251424 c 0,3.030363 -1.97602,5.511164 -4.39208,5.511164 l -38.12906,0 0,-51.4474708 z"  gorn="0.12"/>
    <path style="opacity:0.35" enable-background="new    " id="path26" d="m 19.704477,52.658061 c -2.302754,0 -5.241383,-2.1127 -5.241383,-4.616832 l 0,-11.568001 c 0,2.506724 2.938629,6.435308 5.241383,6.435308 l 173.418343,0 c 2.30407,0 5.24139,-3.928584 5.24139,-6.435308 l 0,11.569298 c 0,2.506724 -2.93732,4.616831 -5.24139,4.616831 l -173.418343,0 z"  gorn="0.13"/>
    <path style="fill:#b2b2b2" id="path28" d="m 199.37428,28.704197 c 0,11.521341 -0.44223,20.858694 -0.99045,20.858694 -0.54821,0 -0.54821,-41.7160921 0,-41.7160921 0.54822,0 0.99045,9.3386501 0.99045,20.8573981"  gorn="0.14"/>
    <path style="fill:#7c7c7c" id="path30" d="m 199.00401,35.814792 c -0.36243,0 -0.36243,-15.413633 0,-15.413633 l -0.0105,0.0013 c 0,0.950067 0.77718,1.719971 1.73753,1.719971 l 0.78503,0 c 0.95774,0 1.73623,0.769904 1.73623,1.721267 l 0,8.523381 c 0,0.946178 -0.77849,1.721266 -1.73623,1.721266 l -0.78503,0 c -0.96035,0 -1.73753,0.769904 -1.73753,1.718675 l 0.0105,0.0078 0,0 z"  gorn="0.15"/>
    <path style="opacity:0.35;fill:#ffffff" enable-background="new    " id="path54" d="m 194.13551,18.520468 c 0,1.836623 -2.01491,3.325881 -4.50084,3.325881 l -166.591199,0 c -2.482003,0 -4.498222,-1.359645 -4.498222,-3.197564 l 0,-10.0268977 c 0,-1.8379188 2.014911,-3.4580871 4.498222,-3.4580871 l 166.589899,0 c 2.48592,0 4.50083,1.4905548 4.50083,3.3284737 l 0,10.0281941 z"  gorn="0.16"/>
    <path style="fill:#353535" id="path58" d="m 11.11625,104.99598 c 0,3.03036 2.501628,5.51116 5.563245,5.51116 l 174.682245,0 c 3.06031,0 5.56325,-2.4808 5.56325,-5.51116 l 0,-40.419961 c 0,-3.030363 -2.50294,-5.511165 -5.56325,-5.511165 l -174.682245,0 c -3.061617,0 -5.563245,2.480802 -5.563245,5.511165 l 0,40.419961 z"  gorn="0.17"/>
    <path style="fill:#ce925d" id="path60" d="m 53.637391,59.068743 -38.129064,0 c -2.417089,0 -4.392077,2.480801 -4.392077,5.511164 l 0,40.419963 c 0,3.03036 1.974988,5.51116 4.392077,5.51116 l 38.129064,0 0,-51.442287 z"  gorn="0.18"/>
    <path style="opacity:0.35" enable-background="new    " id="path62" d="m 190.94175,108.40222 c 2.30275,0 5.24138,-2.11659 5.24138,-4.61813 l 0,-11.569297 c 0,2.506724 -2.93863,6.435308 -5.24138,6.435308 l -173.419656,0 c -2.302755,0 -5.241383,-3.928584 -5.241383,-6.435308 l 0,11.569297 c 0,2.50673 2.938628,4.61813 5.241383,4.61813 l 173.419656,0 z"  gorn="0.19"/>
    <path style="fill:#b2b2b2" id="path64" d="m 11.271947,84.447058 c 0,11.521341 0.444851,20.858692 0.993063,20.858692 0.548213,0 0.548213,-41.71609 0,-41.71609 -0.548212,0 -0.993063,9.33865 -0.993063,20.857398"  gorn="0.20"/>
    <path style="fill:#7c7c7c" id="path66" d="m 11.64222,91.558949 c 0.36373,0 0.36373,-15.413633 0,-15.413633 l 0.01047,0.0013 c 0,0.950067 -0.77718,1.719971 -1.7336077,1.719971 l -0.7889551,0 c -0.9538113,0 -1.7362245,0.773792 -1.7362245,1.721266 l 0,8.524678 c 0,0.947474 0.7824132,1.721266 1.7362245,1.721266 l 0.7889551,0 c 0.9564277,0 1.7336077,0.769904 1.7336077,1.721267 l -0.01047,0.0039 0,0 z"  gorn="0.21"/>
    <path style="opacity:0.35;fill:#ffffff" enable-background="new    " id="path90" d="m 16.512022,74.262032 c 0,1.840512 2.01491,3.325882 4.498221,3.325882 l 166.591207,0 c 2.482,0 4.49822,-1.359645 4.49822,-3.197564 l 0,-10.026898 c 0,-1.837918 -2.01622,-3.458087 -4.49822,-3.458087 l -166.58859,0 c -2.482003,0 -4.498221,1.490555 -4.498221,3.328474 l -0.0026,10.028193 0,0 z"  gorn="0.22"/>
    <g  transform="matrix(1.3083832,0,0,1.2961346,-0.00369886,0)">
        <g >
            <g >
                <g id="g92"  gorn="0.23.0.0.0">
                    <path style="fill:#1a1a1a" id="path94" d="m 8.053,0.143 1.96,1.522 c 0,0 1.398,1.583 2.616,3.271 0.726,1.006 1.334,4.549 2.23,5.447 0.899,0.896 2.182,1.09 3.271,1.09 0.303,0 25.249,0 25.552,0 1.09,0 2.37,-0.19 3.27,-1.09 C 47.85,9.485 48.461,5.942 49.184,4.936 50.401,3.248 51.8,1.665 51.8,1.665 l 1.96,-1.522 -45.707,0 z"  gorn="0.23.0.0.0.0"/>
                    <path style="opacity:0.2;fill:#ffffff" enable-background="new    " id="path96" d="m 10.883,1.292 0.511,0.19 c 0,0 0,0.707 1.136,1.459 0.681,0.449 1.246,0.645 2.085,1.047 0.84,0.4 2.035,0.486 3.056,0.486 0.282,0 26.191,0 26.478,0 1.021,0 2.213,-0.086 3.052,-0.486 0.841,-0.402 1.408,-0.598 2.085,-1.047 1.14,-0.752 1.139,-1.459 1.139,-1.459 L 50.926,1.294 10.883,1.292 Z"  gorn="0.23.0.0.0.1"/>
                </g>
            </g>
        </g>
    </g>
    <g  transform="matrix(1.3083832,0,0,1.2961346,-0.00369886,0)">
        <g >
            <g >
                <g id="g98"  gorn="0.24.0.0.0">
                    <path style="fill:#1a1a1a" id="path100" d="m 107.719,0.143 1.96,1.522 c 0,0 1.398,1.583 2.616,3.271 0.726,1.006 1.335,4.549 2.23,5.447 0.898,0.896 2.182,1.09 3.271,1.09 0.304,0 25.249,0 25.552,0 1.09,0 2.369,-0.19 3.271,-1.09 0.897,-0.898 1.508,-4.441 2.231,-5.447 1.217,-1.688 2.615,-3.271 2.615,-3.271 l 1.961,-1.522 -45.707,0 z"  gorn="0.24.0.0.0.0"/>
                    <path style="opacity:0.2;fill:#ffffff" enable-background="new    " id="path102" d="m 110.549,1.292 0.511,0.19 c 0,0 0,0.707 1.136,1.459 0.681,0.449 1.245,0.645 2.085,1.047 0.843,0.4 2.035,0.486 3.056,0.486 0.282,0 26.192,0 26.479,0 1.021,0 2.213,-0.086 3.053,-0.486 0.841,-0.402 1.407,-0.598 2.087,-1.047 1.138,-0.752 1.137,-1.459 1.137,-1.459 l 0.501,-0.188 -40.045,-0.002 z"  gorn="0.24.0.0.0.1"/>
                </g>
            </g>
        </g>
    </g>
    <g  transform="matrix(1.3083832,0,0,1.2961346,-0.00369886,0)">
        <g >
            <g >
                <g id="g104"  gorn="0.25.0.0.0">
                    <path style="fill:#1a1a1a" id="path106" d="m 8.053,87.143 1.96,-1.525 c 0,0 1.398,-1.582 2.616,-3.269 0.726,-1.006 1.334,-4.549 2.23,-5.448 0.899,-0.898 2.182,-1.09 3.271,-1.09 0.303,0 25.249,0 25.552,0 1.09,0 2.37,0.188 3.27,1.09 0.898,0.899 1.509,4.442 2.232,5.448 1.217,1.687 2.616,3.269 2.616,3.269 l 1.96,1.525 -45.707,0 z"  gorn="0.25.0.0.0.0"/>
                    <path id="path108" d="m 10.883,85.994 0.511,-0.188 c 0,0 0,-0.708 1.136,-1.46 0.681,-0.449 1.246,-0.646 2.085,-1.045 0.84,-0.401 2.035,-0.486 3.056,-0.486 0.282,0 26.191,0 26.478,0 1.021,0 2.213,0.085 3.052,0.486 0.841,0.398 1.408,0.596 2.085,1.045 1.14,0.752 1.139,1.46 1.139,1.46 l 0.501,0.185 -40.043,0.003 z"  gorn="0.25.0.0.0.1"/>
                </g>
            </g>
        </g>
    </g>
    <g  transform="matrix(1.3083832,0,0,1.2961346,-0.00369886,0)">
        <g >
            <g >
                <g id="g110"  gorn="0.26.0.0.0">
                    <path style="fill:#1a1a1a" id="path112" d="m 107.719,87.143 1.96,-1.525 c 0,0 1.398,-1.582 2.616,-3.269 0.726,-1.006 1.335,-4.549 2.23,-5.448 0.898,-0.898 2.182,-1.09 3.271,-1.09 0.304,0 25.249,0 25.552,0 1.09,0 2.369,0.188 3.271,1.09 0.898,0.9 1.508,4.442 2.231,5.448 1.217,1.687 2.615,3.269 2.615,3.269 l 1.961,1.525 -45.707,0 z"  gorn="0.26.0.0.0.0"/>
                    <path id="path114" d="m 110.549,85.994 0.511,-0.188 c 0,0 0,-0.708 1.136,-1.46 0.681,-0.449 1.245,-0.646 2.085,-1.045 0.843,-0.401 2.035,-0.486 3.056,-0.486 0.282,0 26.192,0 26.479,0 1.021,0 2.213,0.085 3.053,0.486 0.841,0.398 1.407,0.596 2.087,1.045 1.138,0.752 1.137,1.46 1.137,1.46 l 0.501,0.185 -40.045,0.003 z"  gorn="0.26.0.0.0.1"/>
                </g>
            </g>
        </g>
    </g>
    <g style="font-style:normal;font-weight:normal;line-height:125%;font-family:Droid Sans;letter-spacing:0px;word-spacing:0px;stroke-linecap:butt;stroke-linejoin:miter;" font-size="25.6009" stroke-opacity="1" id="text4374" fill-opacity="1"  gorn="0.27" stroke-width="0.8" xmlns:xml="http://www.w3.org/XML/1998/namespace" fill="#000000" xml:space="preserve" stroke="none">
        <text style="font-style:normal;font-variant:normal;font-weight:bold;font-stretch:normal;font-size:16.00054741px;font-family:Droid Droid Sans;-inkscape-font-specification:'Droid Droid Sans Bold';fill:#f9f9f9" y="30.097551" id="tspan4376"  gorn="0.27.0" x="34.119549">18650 battery</text>
    </g>
    <g  transform="scale(-1,-1)">
        <g >
            <g >
                <g style="font-style:normal;font-weight:normal;line-height:125%;font-family:Droid Sans;letter-spacing:0px;word-spacing:0px;stroke-linecap:butt;stroke-linejoin:miter;" font-size="25.6009" stroke-opacity="1" id="text4378" fill-opacity="1"  gorn="0.28.0.0.0" stroke-width="0.8" xmlns:xml="http://www.w3.org/XML/1998/namespace" fill="#000000" xml:space="preserve" stroke="none">
                    <text style="font-style:normal;font-variant:normal;font-weight:bold;font-stretch:normal;font-size:16.00054741px;font-family:Droid Droid Sans;-inkscape-font-specification:'Droid Droid Sans Bold';fill:#f9f9f9" y="-74.586578" id="tspan4380"  gorn="0.28.0.0.0.0" x="-175.44933">18650 battery</text>
                </g>
            </g>
        </g>
    </g>
    <path id="path112-9" d="m 210.48595,61.457997 c 5.55698,0 13.3891,0.930294 13.3891,14.474178 0,18.649529 -16.16475,28.045435 -16.16475,43.865795 l 0,12.03901"  gorn="0.29" stroke-width="2.88434362" fill="none" stroke="#000000"/>
    <path id="path114-2" d="m 211.64538,44.28491 c 4.93885,0 20.79871,4.66447 20.79871,28.94753 0,20.54452 -15.69049,27.56438 -15.69049,46.3959 0,0 0,8.48981 0,12.72603"  gorn="0.30" stroke-width="3.23722959" fill="none" stroke="#ff0000"/>
</svg>
